<?xml version="1.0" encoding="UTF-8" standalone="no"?>
<svg width="445px" height="357px" viewBox="0 0 445 357" version="1.1" xmlns="http://www.w3.org/2000/svg" xmlns:xlink="http://www.w3.org/1999/xlink" xmlns:sketch="http://www.bohemiancoding.com/sketch/ns">
    <!-- Generator: Sketch 3.0.4 (8053) - http://www.bohemiancoding.com/sketch -->
    <title>hero-illo</title>
    <desc>Created with Sketch.</desc>
    <defs>
        <circle id="path-1" cx="55.7810889" cy="54.9605808" r="40.5"></circle>
        <linearGradient x1="50%" y1="0%" x2="50%" y2="100%" id="linearGradient-2">
            <stop stop-color="#76BDFF" stop-opacity="0.507246377" offset="0%"></stop>
            <stop stop-color="#BFE1FF" stop-opacity="0.131142437" offset="100%"></stop>
        </linearGradient>
        <circle id="path-3" cx="55.6028857" cy="55.0083302" r="37.3695462"></circle>
        <circle id="path-5" cx="76.2810889" cy="54.9605808" r="40.5"></circle>
        <circle id="path-6" cx="76.2810889" cy="54.9605808" r="37.5"></circle>
        <circle id="path-8" cx="46.2990381" cy="46.1160254" r="40.5"></circle>
        <circle id="path-9" cx="46.2990381" cy="46.1160254" r="37.5"></circle>
        <linearGradient x1="50%" y1="-2.48949813e-15%" x2="50%" y2="100%" id="linearGradient-11">
            <stop stop-color="#E8E0FF" stop-opacity="0" offset="0%"></stop>
            <stop stop-color="#B5ACD1" stop-opacity="0.282014266" offset="100%"></stop>
        </linearGradient>
        <polygon id="path-12" points="204.5 160 270.750943 198.25 270.750943 274.75 204.5 313 138.249057 274.75 138.249057 198.25 "></polygon>
        <radialGradient cx="51.6997457%" cy="68.5502823%" fx="51.6997457%" fy="68.5502823%" r="62.5516699%" id="radialGradient-13">
            <stop stop-color="#3E277F" offset="0%"></stop>
            <stop stop-color="#4A3488" offset="100%"></stop>
        </radialGradient>
        <polygon id="path-14" points="52.5 0 104.894537 30.25 104.894537 90.75 52.5 121 0.105463071 90.75 0.105463071 30.25 "></polygon>
    </defs>
    <g id="Page-1" stroke="none" stroke-width="1" fill="none" fill-rule="evenodd" sketch:type="MSPage">
        <g id="landingpage" sketch:type="MSArtboardGroup" transform="translate(-768.000000, -91.000000)">
            <g id="hero-illo" sketch:type="MSLayerGroup" transform="translate(788.000000, 99.000000)">
                <g id="Line-+-Oval-3" transform="translate(149.000000, 0.000000)">
                    <g id="Oval-3">
                        <use stroke="none" sketch:type="MSShapeGroup" transform="translate(55.781089, 54.960581) rotate(-300.000000) translate(-55.781089, -54.960581) " xlink:href="#path-1"></use>
                        <use stroke="#90A6DB" stroke-width="3" xlink:href="#path-1"></use>
                    </g>
                    <mask id="mask-4" sketch:name="Oval 4" fill="white">
                        <use xlink:href="#path-3"></use>
                    </mask>
                    <g id="Oval-4">
                        <use fill="url(#linearGradient-2)" fill-rule="evenodd" sketch:type="MSShapeGroup" transform="translate(55.733340, 55.138784) rotate(-300.000000) translate(-55.733340, -55.138784) " xlink:href="#path-3"></use>
                        <use fill="none" xlink:href="#path-3"></use>
                    </g>
                    <path d="M54.7858368,74.4746358 C55.4973106,75.3170712 56.6319469,75.2963596 57.3082238,74.4253603 C57.3082238,74.4253603 71,57.5429854 71,48.7567568 C71,40.790348 64.0604136,34 56.0740741,34 C46.9395864,34 40,40.790348 40,48.7567568 C40,57.5429854 54.7858368,74.4746358 54.7858368,74.4746358 Z M55.5,54.6704446 C59.1205334,54.6704446 62.0555556,51.7686877 62.0555556,48.1891892 C62.0555556,44.6096906 59.1205334,41.7079337 55.5,41.7079337 C51.8794666,41.7079337 48.9444444,44.6096906 48.9444444,48.1891892 C48.9444444,51.7686877 51.8794666,54.6704446 55.5,54.6704446 Z" id="Oval-10" fill="#FFFFFF" sketch:type="MSShapeGroup" mask="url(#mask-4)"></path>
                    <path d="M46.3331296,69.3241035 C39.8565236,69.9784233 33.5465116,70.9583333 33.5465116,70.9583333 L47.4856591,70.9583333 C47.1050908,70.4264304 46.72001,69.8808973 46.3331296,69.3241035 Z M65.1960874,69.333873 C72.292005,69.9881291 79.5055077,70.9583333 79.5055077,70.9583333 L64.1319269,70.9583333 C64.483268,70.4296561 64.8388188,69.8873889 65.1960874,69.333873 Z" id="Line" stroke="#FFFFFF" stroke-width="2" stroke-linecap="round" opacity="0.201492537" sketch:type="MSShapeGroup" mask="url(#mask-4)"></path>
                </g>
                <g id="Group" transform="translate(285.000000, 91.000000)">
                    <path d="M0.630453813,75.1086385 L39.4522506,97.5249907" id="Line" stroke="#90A6DB" stroke-width="3" stroke-linecap="square" sketch:type="MSShapeGroup" transform="translate(19.952251, 86.524991) rotate(-240.000000) translate(-19.952251, -86.524991) "></path>
                    <g id="Oval-3">
                        <use stroke="none" sketch:type="MSShapeGroup" transform="translate(76.281089, 54.960581) rotate(-240.000000) translate(-76.281089, -54.960581) " xlink:href="#path-5"></use>
                        <use stroke="#90A6DB" stroke-width="3" xlink:href="#path-5"></use>
                    </g>
                    <mask id="mask-7" sketch:name="Oval 4" fill="white">
                        <use xlink:href="#path-6"></use>
                    </mask>
                    <g id="Oval-4">
                        <use fill="url(#linearGradient-2)" fill-rule="evenodd" sketch:type="MSShapeGroup" transform="translate(76.281089, 54.960581) rotate(-240.000000) translate(-76.281089, -54.960581) " xlink:href="#path-6"></use>
                        <use fill="none" xlink:href="#path-6"></use>
                    </g>
                    <g id="car" mask="url(#mask-7)" fill="#FFFFFF" sketch:type="MSShapeGroup">
                        <g transform="translate(9.000000, 37.000000)">
                            <path d="M13.9995413,20 C10.1341503,20 7,23.1355743 7,27.0004587 C7,30.8662604 10.1341503,34 13.9995413,34 C17.8667672,34 21,30.8662604 21,27.0004587 C21,23.1355743 17.8658497,20 13.9995413,20 L13.9995413,20 Z M14,30 C12.3429637,30 11,28.6576619 11,27.0004658 C11,25.3423381 12.3429637,24 14,24 C15.6561044,24 17,25.3423381 17,27.0004658 C16.999068,28.6576619 15.6561044,30 14,30 L14,30 Z" id="Fill-1"></path>
                            <path d="M77,20 C73.1344516,20 70,23.1348624 70,26.9981651 C70,30.8642202 73.1344516,34 77,34 C80.8646311,34 84,30.8642202 84,26.9981651 C84,23.1348624 80.8646311,20 77,20 L77,20 Z M76.9981378,30 C75.3435754,30 74,28.6576619 74,27.0004658 C74,25.3423381 75.3426443,24 76.9981378,24 C78.6554935,24 80,25.3423381 80,27.0004658 C80,28.6576619 78.6554935,30 76.9981378,30 L76.9981378,30 Z" id="Fill-2"></path>
                            <path d="M72.9117616,9.79493983 C72.9117616,9.79493983 55.3568937,1.68547759 49.7538184,0.509373868 C44.1516787,-0.664876264 24.869765,0.402792364 23.038872,1.5770425 L12.2658862,6.80324336 L1.71088621,11.9265699 L0.00161613485,21.7969439 C0.00161613485,21.7969439 -0.0451619188,27.6524391 0.364613831,29 L5.53545988,29 L5.60188471,26.9147097 C5.60188471,22.1861981 9.47323643,18.3520444 14.2492757,18.3520444 C19.0234439,18.3520444 22.8919889,22.1861981 22.8919889,26.9147097 L23.0398075,29 L68.2826054,29 L68.2891544,26.378095 C68.2891544,21.6486566 71.8957423,18.1564905 76.670846,18.1564905 C81.4459497,18.1564905 85.5811297,21.6495834 85.5811297,26.378095 L85.7579507,28.8025925 C85.7579507,28.8025925 91.2272407,29.1084351 92.9496087,28.4670925 C92.9496087,28.4670925 93.5960814,19.3965431 90.2579995,16.0888093 C87.294142,13.3102759 81.3159067,11.5790215 72.9117616,9.79493983 L72.9117616,9.79493983 Z M24,10.88092 C24,10.88092 26.2595905,6.23877627 28.7266847,4.46659087 C30.5540556,2.95842682 40.6280234,3.00011441 40.6280234,3.00011441 L41,12 L24,10.88092 L24,10.88092 Z M66.3427224,12.9387839 L43.5328883,12.0421912 L43,3.01575838 C51.4541753,2.70039245 61.0794118,7.18610602 66.6077812,10.4057721 C72.1407684,13.6245214 66.3427224,12.9387839 66.3427224,12.9387839 L66.3427224,12.9387839 Z" id="Fill-3"></path>
                        </g>
                    </g>
                </g>
                <g id="Line-+-Oval-3-+-Oval-4" transform="translate(0.000000, 98.000000)">
                    <path d="M82.5,66.5 L123,91.9999995" id="Line" stroke="#90A6DB" stroke-width="3" stroke-linecap="square" sketch:type="MSShapeGroup"></path>
                    <g id="Oval-3" stroke-width="3">
                        <use stroke="#4750A8" sketch:type="MSShapeGroup" xlink:href="#path-8"></use>
                        <use stroke="#90A6DB" xlink:href="#path-8"></use>
                    </g>
                    <mask id="mask-10" sketch:name="Oval 4" fill="white">
                        <use xlink:href="#path-9"></use>
                    </mask>
                    <g id="Oval-4">
                        <use fill="url(#linearGradient-2)" fill-rule="evenodd" sketch:type="MSShapeGroup" transform="translate(46.299038, 46.116025) rotate(-75.000000) translate(-46.299038, -46.116025) " xlink:href="#path-9"></use>
                        <use fill="none" xlink:href="#path-9"></use>
                    </g>
                    <path d="M34.9964905,23 C33.3415745,23 32,24.3433937 32,25.9936145 L32,67.0063855 C32,68.6597131 33.3504982,70 34.9964905,70 L57.0035095,70 C58.6584255,70 60,68.6566063 60,67.0063855 L60,25.9936145 C60,24.3402869 58.6495018,23 57.0035095,23 L34.9964905,23 Z M34,31 L34,62 L58,62 L58,31 L34,31 Z M46,68 C47.1045695,68 48,67.1045695 48,66 C48,64.8954305 47.1045695,64 46,64 C44.8954305,64 44,64.8954305 44,66 C44,67.1045695 44.8954305,68 46,68 Z M43.5034227,27 C43.22539,27 43,27.2319336 43,27.5 C43,27.7761424 43.2329025,28 43.5034227,28 L49.4965773,28 C49.77461,28 50,27.7680664 50,27.5 C50,27.2238576 49.7670975,27 49.4965773,27 L43.5034227,27 Z" id="Rectangle-14" fill="#FFFFFF" sketch:type="MSShapeGroup" mask="url(#mask-10)"></path>
                </g>
                <polygon id="Polygon-1" stroke="#90A6DB" stroke-width="3" fill="url(#linearGradient-11)" sketch:type="MSShapeGroup" points="204 142 285.406388 189 285.406388 283 204 330 122.593612 283 122.593612 189 "></polygon>
                <g id="Polygon-2">
                    <use stroke-opacity="0.773012908" stroke="#9E98C5" stroke-width="3" fill="#5C44A0" fill-rule="evenodd" sketch:type="MSShapeGroup" xlink:href="#path-12"></use>
                    <use stroke="none" fill="none" xlink:href="#path-12"></use>
                    <use stroke="none" fill="none" xlink:href="#path-12"></use>
                </g>
                <g id="inner" transform="translate(152.000000, 176.000000)">
                    <g id="Polygon-3">
                        <use stroke="#5C44A0" stroke-width="2" fill="url(#radialGradient-13)" fill-rule="evenodd" sketch:type="MSShapeGroup" xlink:href="#path-14"></use>
                        <use stroke="none" fill="none" xlink:href="#path-14"></use>
                        <use stroke="none" fill="none" xlink:href="#path-14"></use>
                    </g>
                    <path d="M0.5,30.5 L53.5,61.5" id="Line" stroke="#5C44A0" stroke-width="2" stroke-linecap="square" sketch:type="MSShapeGroup"></path>
                    <path d="M104.673394,30.8003268 L51.3266062,61.1996732" id="Line-2" stroke="#5C44A0" stroke-width="2" stroke-linecap="square" sketch:type="MSShapeGroup"></path>
                </g>
                <path d="M204.5,97.5 L204.5,141.5" id="Line" stroke="#90A6DB" stroke-width="3" stroke-linecap="square" sketch:type="MSShapeGroup"></path>
            </g>
        </g>
    </g>
</svg>