<?xml version="1.0" encoding="UTF-8" standalone="no"?>
<svg width="121px" height="33px" viewBox="0 0 121 33" version="1.1" xmlns="http://www.w3.org/2000/svg" xmlns:xlink="http://www.w3.org/1999/xlink" xmlns:sketch="http://www.bohemiancoding.com/sketch/ns">
    <!-- Generator: Sketch 3.0.4 (8053) - http://www.bohemiancoding.com/sketch -->
    <title>logo</title>
    <desc>Created with Sketch.</desc>
    <defs></defs>
    <g id="Page-1" stroke="none" stroke-width="1" fill="none" fill-rule="evenodd" sketch:type="MSPage">
        <g id="landingpage" sketch:type="MSArtboardGroup" transform="translate(-132.000000, -24.000000)" fill="#FFFFFF">
            <g id="nav" sketch:type="MSLayerGroup" transform="translate(133.000000, 24.000000)">
                <g id="logo" transform="translate(0.000000, 1.000000)" sketch:type="MSShapeGroup">
                    <path d="M48.1981234,11.6706796 C46.5524252,11.6706796 44.4675827,12.1071845 43.0776877,12.6530485 L43.0776877,5.81312621 L40.1517244,5.81312621 L40.1517244,26.1868738 L43.0776877,26.1868738 L43.0776877,15.1269903 C44.504126,14.4720777 46.5158819,14.1446214 47.7958346,14.1446214 C48.4176955,14.1446214 48.9664698,14.4720777 48.9664698,15.2360388 L48.9664698,26.1868738 L51.8558898,26.1868738 L51.8558898,15.6361942 C51.8558898,13.3443107 50.8682835,11.6706796 48.1981234,11.6706796" id="Fill-1"></path>
                    <path d="M60.6703228,11.6343301 C58.2200472,11.6343301 56.2448346,11.9251262 54.781853,12.5073398 C54.2330787,14.5084272 54.0503622,16.5458641 54.0503622,18.9467961 C54.0503622,23.3491262 54.8183963,26.1868738 59.6830289,26.1868738 C61.9505879,26.1868738 63.8524016,25.4956117 65.4253255,24.768 L64.9496378,22.5121553 C63.4866562,23.0943689 61.5848425,23.6765825 59.9022887,23.6765825 C57.7443596,23.6765825 57.0859554,23.2400777 56.9763255,19.6744078 L65.7545276,19.6744078 L65.7545276,18.1464854 C65.7545276,14.1082718 64.4377192,11.6343301 60.6703228,11.6343301 L60.6703228,11.6343301 Z M56.9763255,17.4552233 C57.0128688,15.927301 57.2324409,14.4357282 57.2324409,14.4357282 C57.2324409,14.4357282 58.6954226,14.1446214 60.6703228,14.1446214 C62.6455354,14.1446214 63.1939974,15.3814369 63.1939974,17.4552233 L56.9763255,17.4552233 L56.9763255,17.4552233 Z" id="Fill-2"></path>
                    <path d="M116.228643,11.6343301 L116.228643,22.5488155 C116.228643,22.5488155 114.180344,23.640233 111.47364,23.640233 C110.852092,23.640233 110.376404,23.3854757 110.376404,22.6215146 L110.376404,11.6343301 L107.450441,11.6343301 L107.450441,22.2577087 C107.450441,24.5495922 108.657307,26.1868738 111.107895,26.1868738 C115.350667,26.1868738 119.154606,24.0040388 119.154606,24.0040388 L119.154606,11.6343301 L116.228643,11.6343301" id="Fill-3"></path>
                    <path d="M84.0421102,11.6343301 C80.165084,11.6343301 77.4586929,13.6714563 77.4586929,18.9831456 C77.4586929,24.0040388 79.5066798,26.1868738 84.0421102,26.1868738 C87.9191365,26.1868738 90.6258399,24.1494369 90.6258399,18.8377476 C90.6258399,13.817165 88.5775407,11.6343301 84.0421102,11.6343301 L84.0421102,11.6343301 Z M84.0421102,24.0040388 C81.5915223,24.0040388 80.4211995,22.4031068 80.4211995,18.8740971 C80.4211995,15.1633398 81.9572677,13.817165 84.0421102,13.817165 C86.4926982,13.817165 87.663021,15.4177864 87.663021,18.9467961 C87.663021,22.6578641 86.1269528,24.0040388 84.0421102,24.0040388 L84.0421102,24.0040388 Z" id="Fill-4"></path>
                    <path d="M67.949,26.1868738 L70.8749633,26.1868738 L70.8749633,15.2723883 C71.9356562,14.6901748 73.6912966,14.2173204 75.9957113,14.1809709 L75.9957113,11.6706796 C71.3503386,11.6706796 67.949,13.817165 67.949,13.817165 L67.949,26.1868738" id="Fill-5"></path>
                    <path d="M100.318249,18.4375922 C102.220063,15.9636505 103.792987,13.6714563 104.670651,11.6343301 L101.635058,11.6343301 C100.610908,13.7808155 99.3671864,15.7452427 97.940748,17.4552233 L95.7462756,17.4552233 L95.7462756,5.81312621 L92.8203123,5.81312621 L92.8203123,26.1868738 L95.7462756,26.1868738 L95.7462756,19.6380583 L97.940748,19.6380583 C99.3671864,21.3843883 100.757081,23.4945243 102.18352,26.1868738 L105.255969,26.1868738 C103.866073,23.4218252 102.29315,20.8024854 100.318249,18.4375922" id="Fill-6"></path>
                    <path d="M25.9863517,-0.120854369 L2.74855643,-0.120854369 C1.13471654,-0.120854369 -0.156167979,1.16318447 -0.156167979,2.76846602 L-0.156167979,29.0935922 C-0.156167979,30.6985631 1.13471654,31.9826019 2.74855643,31.9826019 L25.9863517,31.9826019 C27.6001916,31.9826019 28.8910761,30.6985631 28.8910761,29.0935922 L28.8910761,2.76846602 C28.8910761,1.16318447 27.6001916,-0.120854369 25.9863517,-0.120854369 L25.9863517,-0.120854369 Z M7.10564304,27.167068 L7.10564304,20.7465631 L10.7365486,23.9568155 L7.10564304,27.167068 L7.10564304,27.167068 Z M18.4018976,27.167068 L18.4018976,17.5763883 C18.4018976,16.8139806 18.0386509,15.9310291 16.3845197,15.9310291 C13.1168609,15.9310291 9.40506037,17.5763883 9.40506037,17.5763883 L7.10564304,18.6196505 L7.10564304,4.69467961 L10.3330105,4.69467961 L10.3330105,13.8041165 C11.9468504,13.2824854 14.2059764,12.720466 16.3845197,12.720466 C18.361294,12.720466 19.5715958,13.4831845 20.2171942,14.1654369 C21.6292651,15.5697087 21.6292651,17.3356117 21.6292651,17.536 L21.6292651,27.167068 L18.4018976,27.167068 L18.4018976,27.167068 Z M19.2086614,9.91161165 L15.981294,9.91161165 C17.2318871,8.26625243 18.0386509,6.50066019 18.4018976,4.69467961 L21.6292651,4.69467961 C21.4274961,6.50066019 20.6610236,8.26625243 19.2086614,9.91161165 L19.2086614,9.91161165 Z" id="Fill-7"></path>
                </g>
            </g>
        </g>
    </g>
</svg>